# xmcd
#
# Track frame offsets:
#	150
#	17676
#	44083
#	69182
#	86597
#	107451
#	132039
#	157441
#	175712
#	195356
#	217377
#	240021
#
# Disc length: 3437 seconds
#
# Revision: 0
# Processed by: cddbd v1.5.1PL0 Copyright (c) Steve Scherf et al.
# Submitted via: dBpowerAMP V4.0
#
DISCID=9b0d6b0c
DTITLE=Kenny Wayne Shepherd - Trouble Is
DYEAR=1997
DGENRE=Blues
TTITLE0=Slow Ride
TTITLE1=True Lies
TTITLE2=Blue On Black
TTITLE3=Everything Is Broken
TTITLE4=I Don't Live Today
TTITLE5=(Long) Gone
TTITLE6=Somehow, Somewhere, Someway
TTITLE7=I Found Love (When I Found You)
TTITLE8=King's Highway
TTITLE9=Nothing To Do With Love
TTITLE10=Chase The Rainbow
TTITLE11=Trouble Is...
EXTD=Original Release Date: October 7, 1997\nLabel: Warner Bros - Wea\nRipped by Aaron Cohn
EXTT0=
EXTT1=
EXTT2=
EXTT3=
EXTT4=
EXTT5=
EXTT6=
EXTT7=
EXTT8=
EXTT9=
EXTT10=
EXTT11=
PLAYORDER=
